<svg xmlns="http://www.w3.org/2000/svg" width="32" height="32" viewBox="0 0 32 32">
  <path fill="#f9fdff" stroke="#05070a" stroke-width="2.4" stroke-linecap="round" stroke-linejoin="round" d="M8.5 14.3v-2.1a2.4 2.4 0 0 1 4.8 0v1.9h.3V9.3a2.4 2.4 0 0 1 4.8 0V14h.3v-3.3a2.3 2.3 0 1 1 4.6 0v3.6h.3v-1.7a2.25 2.25 0 0 1 4.5 0v6.3c0 5.6-3.7 9.1-9.3 9.1h-2.3c-3.7 0-6.5-1.8-7.8-5.1l-1.5-3.8a2.35 2.35 0 0 1 4.2-2.1l.7 1.1"/>
  <path fill="none" stroke="#05070a" stroke-width="1.35" stroke-linecap="round" d="M13.2 14.1h10.2M12.7 18.4h12.6M14.3 22.5h9.4"/>
</svg>
