<svg xmlns="http://www.w3.org/2000/svg" width="32" height="32" viewBox="0 0 32 32">
  <path fill="#f9fdff" stroke="#05070a" stroke-width="2.4" stroke-linecap="round" stroke-linejoin="round" d="M10.2 16.4V7.7a2.15 2.15 0 0 1 4.3 0v8.6V5.5a2.2 2.2 0 0 1 4.4 0v10.2V7.1a2.12 2.12 0 0 1 4.24 0v9.2V10.2a2.08 2.08 0 0 1 4.16 0v8.4l1.1-1.9a2.15 2.15 0 0 1 3.84 1.93l-3.1 6.15A7.6 7.6 0 0 1 22.36 29H15.7a7.2 7.2 0 0 1-6.33-3.79l-3.17-5.95a2.25 2.25 0 0 1 4-2.08l1.1 2.05"/>
  <path fill="none" stroke="#05070a" stroke-width="1.35" stroke-linecap="round" d="M14.5 15.8v4.6M18.9 15.8v4.6M23.1 16.1v4.3"/>
</svg>
